<svg width="400" height="400" viewBox="0 0 400 400" fill="none" xmlns="http://www.w3.org/2000/svg">
<g clip-path="url(#clip0_2_126)">
<path d="M200 400C310.457 400 400 310.457 400 200C400 89.543 310.457 0 200 0C89.543 0 0 89.543 0 200C0 310.457 89.543 400 200 400Z" fill="#9900FF"/>
<path d="M174.615 277.579C162.813 277.579 152.808 274.821 144.615 269.297C136.417 263.773 130.644 256.244 127.301 246.712C123.954 237.179 123.646 226.438 126.375 214.48C129.103 202.526 134.08 191.823 141.314 182.362C148.539 172.905 157.175 165.415 167.213 159.891C177.246 154.366 187.794 151.608 198.842 151.608C207.768 151.608 215.591 153.461 222.316 157.171C229.031 160.88 234.24 165.907 237.933 172.265L251.924 110.981C252.72 107.503 254.455 104.703 257.133 102.581C259.806 100.463 262.813 99.4021 266.143 99.4021C269.474 99.4021 272.181 100.463 273.815 102.581C275.448 104.703 275.869 107.503 275.074 110.981L251.44 214.484C248.711 226.442 243.495 237.183 235.798 246.716C228.093 256.248 218.922 263.777 208.282 269.301C197.638 274.825 186.417 277.583 174.615 277.583V277.579ZM179.28 257.154C186.998 257.154 194.303 255.305 201.204 251.592C208.101 247.886 214.034 242.779 219.002 236.269C223.966 229.764 227.364 222.505 229.196 214.48C231.061 206.312 230.981 199.048 228.951 192.691C226.922 186.337 223.301 181.305 218.101 177.596C212.893 173.891 206.429 172.034 198.716 172.034C191.002 172.034 183.882 173.886 176.905 177.596C169.928 181.305 163.937 186.337 158.93 192.691C153.92 199.048 150.488 206.312 148.619 214.48C146.787 222.505 146.905 229.768 148.977 236.269C151.044 242.775 154.724 247.886 160.004 251.592C165.284 255.301 171.705 257.154 179.276 257.154H179.28Z" fill="white"/>
</g>
<defs>
<clipPath id="clip0_2_126">
<rect width="400" height="400" fill="white"/>
</clipPath>
</defs>
</svg>
